# xmcd
#
# Track frame offsets: 
#        150
#        20188
#        34368
#        52470
#        72961
#        93376
#        111241
#        133355
#        156027
#        170813
#        188030
#        203352
#        222213
#
# Disc length: 3347 seconds
#
# Revision: 0
# Processed by: cddbd v1.5.2PL0 Copyright (c) Steve Scherf et al.
# Submitted via: ExactAudioCopy v1.0b4
#
DISCID=c90d110d
DTITLE=The Mannish Boys - Double Dynamite (Rithm and Blues Explosion)
DYEAR=2012
DGENRE=Blues
TTITLE0=Born Under a Bad Sign
TTITLE1=That Dood It
TTITLE2=You've Got the Power
TTITLE3=Drowning on Dry Land
TTITLE4=Mr. Charles Blues
TTITLE5=Cold Sweat
TTITLE6=Later On
TTITLE7=You Don't Love Me
TTITLE8=Bed for My Soul
TTITLE9=Why Does Everything Happen to Me
TTITLE10=I Woke Up Screaming
TTITLE11=West Helena Blues
TTITLE12=Hittin' the Groove
EXTD=
EXTT0=
EXTT1=
EXTT2=
EXTT3=
EXTT4=
EXTT5=
EXTT6=
EXTT7=
EXTT8=
EXTT9=
EXTT10=
EXTT11=
EXTT12=
PLAYORDER=
